<?xml version="1.0" encoding="utf-8"?>
<!-- Generator: Adobe Illustrator 24.1.1, SVG Export Plug-In . SVG Version: 6.00 Build 0)  -->
<svg version="1.1" id="_123" xmlns="http://www.w3.org/2000/svg" xmlns:xlink="http://www.w3.org/1999/xlink" x="0px" y="0px"
	 viewBox="0 0 24 24" style="enable-background:new 0 0 24 24;" xml:space="preserve">
<style type="text/css">
	.st0{fill:#5075E6;}
	.st1{fill:#5982FF;}
	.st2{fill:#4768CC;}
</style>
<g id="Group_1">
	<path id="Path_2" class="st0" d="M18.4,10.9h-1.1V8.8h-1.1V6.7h-1.1V5.6h-1.1V4.5H9.9v1.1H8.8v1.1H7.7v2.1H6.7v2.1H5.6v4.3h1.1v2.1
		h1.1v1.1h1.1v1.1h6.4v-1.1h1.1v-1.1h1.1v-2.1h1.1L18.4,10.9z"/>
</g>
<g id="Group_2" transform="translate(1.126 1.126)">
	<path id="Path_3" class="st1" d="M16.3,9.8v4.3h-1.1v2.1h-1.1v1.1H7.6v-1.1H6.6v-2.1H5.5V9.8h1.1V7.7h1.1V5.5h1.1V4.4H13v1.1h1.1
		v2.1h1.1v2.1H16.3z"/>
</g>
<g>
	<rect id="Rectangle_6" x="8.9" y="15.7" class="st2" width="0.9" height="1.8"/>
	<rect id="Rectangle_7" x="14.2" y="15.7" class="st2" width="0.9" height="1.8"/>
	<rect id="Rectangle_8" x="10.2" y="14.2" class="st2" width="3.7" height="0.9"/>
	<rect id="Rectangle_9" x="14.2" y="12.2" class="st2" width="0.9" height="1.8"/>
	<rect id="Rectangle_10" x="8.9" y="13.1" class="st2" width="0.9" height="0.9"/>
	<rect id="Rectangle_11" x="7.8" y="11.1" class="st2" width="0.9" height="1.8"/>
	<rect id="Rectangle_12" x="8.9" y="8.9" class="st2" width="0.9" height="1.8"/>
	<rect id="Rectangle_13" x="10" y="7.8" class="st2" width="1.8" height="0.9"/>
	<path id="Path_4" class="st2" d="M10.9,11.1H10v1.8h0.9V12h0.9v-0.9H10.9z"/>
</g>
</svg>
