<svg id="gear" xmlns="http://www.w3.org/2000/svg" width="34.397" height="34.41" viewBox="0 0 34.397 34.41">
  <path id="Path_62" data-name="Path 62" d="M36.323,17.671c-.7-1.7.138-2.856,1.129-4.944L34.406,9.675c-2.108,1-3.25,1.832-4.931,1.136h0c-1.7-.709-1.93-2.114-2.705-4.3H22.457L20.067,8.9l.965.965a3.069,3.069,0,0,1-1.267.945h0c-1.7.7-2.863-.138-4.944-1.129l-2.39,2.39h0l-.657.657c.978,2.055,1.838,3.237,1.129,4.944S10.79,19.589,8.61,20.363l-2.39,2.39,2.39-.348v2.272c2.18.775,3.591,1,4.294,2.692s-.138,2.856-1.129,4.944l3.046,3.046c2.1-1,3.25-1.832,4.944-1.129h0c1.694.7,1.917,2.114,2.692,4.294h2.108l-.184,2.39,2.39-2.39c.781-2.193,1-3.591,2.692-4.294h0c1.7-.7,2.863.138,4.944,1.129l3.046-3.046c-1-2.1-1.832-3.25-1.129-4.944h0a3.115,3.115,0,0,1,.939-1.267l.965.965,2.39-2.39V20.363C38.444,19.6,37.026,19.365,36.323,17.671ZM24.61,17.186a5.338,5.338,0,1,1-5.338,5.338A5.338,5.338,0,0,1,24.61,17.186Z" transform="translate(-6.22 -6.51)" fill="#e6e6e6"/>
  <path id="Path_63" data-name="Path 63" d="M22.22,15.121l.236-8.6-2.39,2.39.965.965a3.069,3.069,0,0,1-1.267.945h0c-1.7.7-2.863-.138-4.944-1.129l-2.39,2.39h0l-.657.657c.978,2.055,1.838,3.237,1.129,4.944S10.79,19.6,8.61,20.373l-2.39,2.39,2.39-.348v2.272c2.18.775,3.591,1,4.294,2.692s-.138,2.856-1.129,4.944l3.046,3.046c2.1-1,3.25-1.832,4.944-1.129h0c1.694.7,1.917,2.114,2.692,4.294h2.108l-.184,2.39,2.39-2.39c.781-2.193,1-3.591,2.692-4.294h0c1.7-.7,2.863.138,4.944,1.129l3.046-3.046c-1-2.1-1.832-3.25-1.129-4.944h0a3.115,3.115,0,0,1,.939-1.267l.965.965,2.39-2.39V20.373c-2.18-.775-3.591-1-4.294-2.7s.138-2.856,1.129-4.944l-9.894,5m-2.948-.538a5.338,5.338,0,1,1-5.338,5.338A5.338,5.338,0,0,1,24.61,17.189Z" transform="translate(-6.22 -6.513)" fill="#ccc"/>
  <path id="Path_64" data-name="Path 64" d="M27.558,26.163a5.338,5.338,0,1,1-5.338-5.338A5.338,5.338,0,0,1,27.558,26.163Zm6.375-4.852c-.7-1.7.138-2.856,1.129-4.944l-3.046-3.046c-2.108,1-3.25,1.832-4.931,1.129h0c-1.7-.709-1.93-2.114-2.705-4.3H20.067c-.775,2.186-1,3.591-2.692,4.294h0c-1.7.7-2.863-.138-4.944-1.129L9.385,16.361c.978,2.055,1.838,3.237,1.129,4.944S8.4,23.222,6.22,24V28.31c2.18.775,3.591,1,4.294,2.692s-.138,2.856-1.129,4.944l3.046,3.046c2.1-1,3.25-1.832,4.944-1.129h0c1.694.7,1.917,2.114,2.692,4.294H24.38c.781-2.193,1-3.591,2.692-4.294h0c1.7-.7,2.863.138,4.944,1.129l3.046-3.046c-1-2.1-1.832-3.25-1.129-4.944h0c.7-1.687,2.094-1.911,4.294-2.692V24C36.054,23.235,34.636,23.005,33.933,21.311Z" transform="translate(-6.22 -7.76)" fill="#b3b3b3"/>
  <path id="Path_65" data-name="Path 65" d="M27.31,8.91,29.7,6.52h4.314l-2.39,2.39" transform="translate(-13.463 -6.513)" fill="#e6e6e6"/>
  <path id="Path_66" data-name="Path 66" d="M45.51,13.72l2.39-2.39,3.046,3.053-2.39,2.39" transform="translate(-19.714 -8.165)" fill="#e6e6e6"/>
  <path id="Path_67" data-name="Path 67" d="M54.98,34.317V30.01l2.383-2.39v4.307" transform="translate(-22.966 -13.76)" fill="#ccc"/>
</svg>
