<?xml version="1.0" encoding="utf-8"?>
<!-- Generator: Adobe Illustrator 24.1.1, SVG Export Plug-In . SVG Version: 6.00 Build 0)  -->
<svg version="1.1" id="star" xmlns="http://www.w3.org/2000/svg" xmlns:xlink="http://www.w3.org/1999/xlink" x="0px" y="0px"
	 viewBox="0 0 24 24" style="enable-background:new 0 0 24 24;" xml:space="preserve">
<style type="text/css">
	.st0{clip-path:url(#SVGID_2_);}
	.st1{fill:#557FFF;}
</style>
<g>
	<defs>
		<polygon id="SVGID_1_" points="12,1.8 14.3,8.8 21.7,8.8 15.7,13.2 18,20.2 12,15.9 6,20.2 8.3,13.2 2.3,8.8 9.7,8.8 		"/>
	</defs>
	<use xlink:href="#SVGID_1_"  style="overflow:visible;fill:#557FFF;"/>
	<clipPath id="SVGID_2_">
		<use xlink:href="#SVGID_1_"  style="overflow:visible;"/>
	</clipPath>
	<g id="Mask_Group_1" class="st0">
		<g id="star-2" transform="translate(0 0)">
			<path id="Path_6" class="st1" d="M12,15.1l-4.8,3.5L9,12.9L4.2,9.4h6L12,3.7l1.9,5.7h6L15,12.9l1.8,5.7L12,15.1z"/>
			<path id="Path_7" class="st1" d="M12,5.7l1.1,3.5l0.3,0.8H18l-3,2.2l-0.7,0.5l0.3,0.8l1.1,3.5l-3-2.2L12,14.4l-0.7,0.5l-3,2.2
				l1.1-3.5l0.3-0.8L9,12.2L6,10h4.6l0.3-0.8L12,5.7 M12,1.8l-2.3,7H2.3l6,4.4l-2.3,7l6-4.4l6,4.4l-2.3-7l6-4.4h-7.4L12,1.8z"/>
		</g>
	</g>
</g>
</svg>
