<svg id="steve" xmlns="http://www.w3.org/2000/svg" width="19.158" height="34.627" viewBox="0 0 19.158 34.627">
  <g id="Group_54" data-name="Group 54" transform="translate(0 10.111)">
    <g id="Group_43" data-name="Group 43" transform="translate(0.269 9.652)">
      <path id="Path_16" data-name="Path 16" d="M23.237,48.51l-2.7-2.294L23.678,35.31l2.691,2.3Z" transform="translate(-20.54 -35.31)" fill="#b3b3b3"/>
    </g>
    <g id="Group_44" data-name="Group 44" transform="translate(2.967 11.01)">
      <path id="Path_17" data-name="Path 17" d="M28.571,48.43l-3.621.942,3.132-10.9L31.7,37.53Z" transform="translate(-24.95 -37.53)" fill="#ccc"/>
    </g>
    <g id="Group_47" data-name="Group 47" transform="translate(0 1.388)">
      <g id="Group_45" data-name="Group 45">
        <path id="Path_18" data-name="Path 18" d="M22.412,30.822,20.1,29.733,22.418,21.8l2.306,1.034Z" transform="translate(-20.1 -21.8)" fill="#b3b3b3"/>
      </g>
      <g id="Group_46" data-name="Group 46" transform="translate(2.312 0.954)">
        <path id="Path_19" data-name="Path 19" d="M26.351,31.281l-2.471.147,2.312-7.988,2.477-.08Z" transform="translate(-23.88 -23.36)" fill="#b3b3b3"/>
      </g>
      <path id="Path_20" data-name="Path 20" d="M23.89,21.8,26.2,22.834l2.471-.055-2.239-.648" transform="translate(-21.572 -21.8)" fill="#b3b3b3"/>
    </g>
    <g id="Group_48" data-name="Group 48" transform="translate(3.028)">
      <path id="Path_21" data-name="Path 21" d="M31.5,33.238l-6.447-2.93V19.53L31.5,21.9Z" transform="translate(-25.05 -19.53)" fill="#b3b3b3"/>
    </g>
    <g id="Group_49" data-name="Group 49" transform="translate(9.475 0.465)">
      <path id="Path_22" data-name="Path 22" d="M38.807,31.63l-3.217,1.9V22.192l3.217-1.9Z" transform="translate(-35.59 -20.29)" fill="#ccc"/>
    </g>
    <g id="Group_50" data-name="Group 50" transform="translate(6.251 11.707)">
      <path id="Path_23" data-name="Path 23" d="M33.544,51.478,30.32,50.01V38.67l3.224,1.468Z" transform="translate(-30.32 -38.67)" fill="#b3b3b3"/>
    </g>
    <g id="Group_51" data-name="Group 51" transform="translate(9.475 11.267)">
      <path id="Path_24" data-name="Path 24" d="M38.807,49.29,35.59,51.2V39.858l3.217-1.908Z" transform="translate(-35.59 -37.95)" fill="#ccc"/>
    </g>
    <g id="Group_52" data-name="Group 52" transform="translate(9.719 2.826)">
      <path id="Path_25" data-name="Path 25" d="M43.624,35.362l-3.395.006L35.99,24.835l2.973-.685Z" transform="translate(-35.99 -24.15)" fill="#b3b3b3"/>
    </g>
    <g id="Group_53" data-name="Group 53" transform="translate(12.692 0.783)">
      <path id="Path_26" data-name="Path 26" d="M47.315,31.331l-1.8,2.734L40.85,22.853l2.233-2.043Z" transform="translate(-40.85 -20.81)" fill="#ccc"/>
    </g>
    <path id="Path_27" data-name="Path 27" d="M35.99,23.538l3.529.7,1.688-3.389-3.358-.037" transform="translate(-26.271 -20.027)" fill="#e6e6e6"/>
  </g>
  <g id="Group_55" data-name="Group 55" transform="translate(1.095)">
    <path id="Path_28" data-name="Path 28" d="M28.337,9.735,21.89,6.811,28.337,3l6.441,2.93Z" transform="translate(-21.89 -3)" fill="#e6e6e6"/>
  </g>
  <g id="Group_56" data-name="Group 56" transform="translate(1.095 3.811)">
    <path id="Path_29" data-name="Path 29" d="M28.337,19.524l-6.447-2.93V9.23l6.447,2.924Z" transform="translate(-21.89 -9.23)" fill="#b3b3b3"/>
  </g>
  <g id="Group_57" data-name="Group 57" transform="translate(7.542 2.93)">
    <path id="Path_30" data-name="Path 30" d="M38.871,15.155,32.43,18.965V11.595l6.441-3.8Z" transform="translate(-32.43 -7.79)" fill="#ccc"/>
  </g>
</svg>
