<svg id="Layer_1" data-name="Layer 1" xmlns="http://www.w3.org/2000/svg" viewBox="0 0 2725 1000"><title>Artboard 1</title><path d="M902.31,238.39c0-23.39,0-47-.52-69.81h62.75c.89,7.11,2.32,23.86,2.53,35.44,13.28-21.54,35.67-41.76,76.44-41.76,38.72,0,61.79,19.92,71.59,43.66,15.39-23.33,39.51-43.66,84.4-43.66,46.1,0,85.67,28,85.67,99.37V439.39h-64V269.59c0-26.8-9.69-53.81-44.28-53.81-36,0-50.65,24.84-50.65,68.56V439.39H1062V272c0-30.33-7.9-55.81-43.44-55.81-34.86,0-51.49,24.25-51.49,72.45V439.39H902.31Z"/><path d="M1570.53,373.09c0,25.4,2.1,59.35,3.68,66.3h-62.59c-2.11-5.58-3.69-19.39-4-29.49-9.7,16.17-29.18,35.81-78.65,35.81-64.8,0-92.25-42.47-92.25-84.19,0-61.28,48.84-89.47,128.61-89.47h41.18V253.31c0-20.81-7.16-43.18-47.28-43.18-36.22,0-43.38,16.48-47.33,36.6h-62.54c3.9-44.49,31.42-84.84,112.24-84.47,70.41.37,108.93,28.24,108.93,91.74Zm-63.86-59.92h-35c-48.14,0-69,14.17-69,44.34,0,22.48,14.48,40.33,43.6,40.33,53.54,0,60.39-36.75,60.39-77Z"/><path d="M1872,360.63c0,26.18.16,57.3.53,78.76h-64.07c-1.06-7.22-1.58-22.39-2-34.39-15.13,28.13-39.78,40.71-77.07,40.71-52,0-90.09-29.89-90.09-100.16v-177h65.33V332.21c0,31.81,9.9,59.25,46.55,59.25,39.43,0,55.28-21.37,55.28-79.72V168.58H1872Z"/><path d="M1943.58,242.08c0-30.59-.16-53.62-.53-73.5h64.23c.9,6.59,1.79,31.57,1.79,50.15,12.7-32.87,42.72-55.84,88.35-56.47v63.17c-54.79-.38-88.35,19.09-88.35,91.39V439.39h-65.49Z"/><path d="M946.63,768.43C953,792.7,972.07,806.6,1003,806.6c31.74,0,43.69-12.37,43.69-31.53,0-20.06-11.9-28.53-55-39.06-84.58-20.76-99.59-46.85-99.59-84.58,0-39.3,28.13-80,105.76-80,78,0,106.08,43.37,108.82,80.41h-62.54c-2.89-12.53-11.78-33.27-49.18-33.27-29.21,0-38.32,13.42-38.32,27.47,0,15.74,9.32,23.43,55.2,34.22,87.58,20.5,101.59,50.28,101.59,90.16,0,45.73-35.3,84.46-112.77,84.46-78.16,0-112.25-38.26-118.52-86.41Z"/><path d="M1179.16,848.52V463.19h65.49V848.52Z"/><path d="M1563.46,769.75c0,26.19.16,57.31.53,78.77h-64.07c-1.06-7.22-1.58-22.39-2-34.39-15.13,28.13-39.78,40.71-77.07,40.71-52,0-90.09-29.89-90.09-100.16v-177h65.33V741.34c0,31.81,9.9,59.25,46.55,59.25,39.43,0,55.28-21.37,55.28-79.72V577.71h65.49Z"/><path d="M1716.38,697c20.91-26.93,64.75-75.88,101.9-119.31h75.82l-96.93,103.37L1904,848.52h-74.77l-76.09-125.47-36.71,35.5v90h-65.49V463.19h65.49Z"/><path d="M1993.4,726.62c.15,41,20.73,76.13,61,76.13,35.12,0,45.7-15.73,53.33-33.27h65.65c-9.95,33.66-39.35,85.36-120.78,85.36-87.83,0-125.19-67.54-125.19-138.14,0-83.46,42.57-145.31,128-145.31,91.1,0,121.72,68.22,121.72,132.52,0,8.85,0,15.12-.9,22.71ZM2111.28,685c-.53-35.9-16.42-65.55-56.23-65.55S1998.56,647,1995,685Z"/><path d="M2247.87,651.21c0-30.59-.16-53.62-.53-73.5h64.23c.9,6.59,1.79,31.57,1.79,50.15,12.7-32.87,42.72-55.84,88.35-56.47v63.17c-54.79-.38-88.35,19.09-88.35,91.39V848.52h-65.49Z"/><circle cx="386.04" cy="672.34" r="138.92"/><circle cx="478.14" cy="550.72" r="66.15"/><circle cx="524.96" cy="449.97" r="100.75"/><circle cx="554.47" cy="340.05" r="66.15"/><path d="M591.11,320.3a66.16,66.16,0,1,1,0-121.29,66.18,66.18,0,0,0,0,121.29Z"/><path d="M633.59,207.78a66.16,66.16,0,1,1-88.36,83.09,66.18,66.18,0,0,0,88.36-83.09Z"/><path d="M513.59,468.17a132.82,132.82,0,0,1-39.28-7.72A128.9,128.9,0,0,1,440.22,442,124.4,124.4,0,0,1,414,415a118.84,118.84,0,0,1-16.33-32.58,115,115,0,0,1-5.5-34.8A111.78,111.78,0,0,1,397.26,314a108.1,108.1,0,0,1,14.37-29.44,104.33,104.33,0,0,1,21.73-22.89,100,100,0,0,0-14.53,26.66A95.64,95.64,0,0,0,413.24,317a91.63,91.63,0,0,0,3.15,27.76,86,86,0,0,0,10.94,24.34,80.54,80.54,0,0,0,38.07,31.16,75.44,75.44,0,0,0,22.62,5,71.21,71.21,0,0,0,21.84-2Z"/><path d="M484.79,518.57a132.77,132.77,0,0,1-39,9.2A128.64,128.64,0,0,1,407.15,525a124.08,124.08,0,0,1-35-13.73,118.38,118.38,0,0,1-28.34-22.92A115.32,115.32,0,0,1,324.42,459a112.2,112.2,0,0,1-9.26-32.68,108,108,0,0,1,.92-32.75,103.83,103.83,0,0,1,10.33-29.83A100.08,100.08,0,0,0,324.19,394a95.55,95.55,0,0,0,6.74,28.37,91.13,91.13,0,0,0,14.34,24,86.24,86.24,0,0,0,20,17.65,80.59,80.59,0,0,0,47.55,12.64,75.68,75.68,0,0,0,22.67-4.77A71.11,71.11,0,0,0,454.58,461Z"/><path d="M575.51,429.5A71.49,71.49,0,0,0,590,446,75.53,75.53,0,0,0,609.82,458a80.5,80.5,0,0,0,49.06,3.69,86.25,86.25,0,0,0,24.7-10.09A91.16,91.16,0,0,0,705,433.62,95.59,95.59,0,0,0,720.69,409a100,100,0,0,0,7.86-29.32,104.36,104.36,0,0,1,0,31.56,108.14,108.14,0,0,1-9.89,31.23,112,112,0,0,1-19.5,27.83,114.93,114.93,0,0,1-28,21.4,118.56,118.56,0,0,1-34.3,12.34,124.15,124.15,0,0,1-37.57,1.46,128.42,128.42,0,0,1-37.44-10.12,132.29,132.29,0,0,1-33.76-21.49Z"/><path d="M305,600.53a71.38,71.38,0,0,0-13.09-17.6,75.7,75.7,0,0,0-18.82-13.5,80.48,80.48,0,0,0-48.61-7.61A86,86,0,0,0,199,569.9a91.38,91.38,0,0,0-22.79,16.15,96,96,0,0,0-17.61,23.25,100,100,0,0,0-10.18,28.6A104.13,104.13,0,0,1,151,606.44,107.85,107.85,0,0,1,163.4,576.1a112,112,0,0,1,21.66-26.17,114.85,114.85,0,0,1,29.6-19.09,118.64,118.64,0,0,1,35.18-9.56,124.1,124.1,0,0,1,37.56,1.56,128.65,128.65,0,0,1,36.51,13.08,132.49,132.49,0,0,1,31.94,24.13Z"/><path d="M564,813.6a98.06,98.06,0,0,0,13.8-57.18,91.4,91.4,0,0,0-6.22-27.24,85.52,85.52,0,0,0-13.59-23,80.76,80.76,0,0,0-41.31-26.72,75.26,75.26,0,0,0-23-2.48,71.49,71.49,0,0,0-21.49,4.43l-11-64.07a132.78,132.78,0,0,1,39.9,3.26A128.47,128.47,0,0,1,537,635.2a124.32,124.32,0,0,1,29,23.89,119,119,0,0,1,19.88,30.56,114.51,114.51,0,0,1,9.36,34,111.88,111.88,0,0,1-1.3,33.95,108.49,108.49,0,0,1-11,30.86A104.1,104.1,0,0,1,564,813.6Z"/><path d="M575.73,509.44a71.59,71.59,0,0,0,6.35,21,75.45,75.45,0,0,0,13.14,19.08,80.49,80.49,0,0,0,43.15,23.64,86.23,86.23,0,0,0,26.66,1A91.15,91.15,0,0,0,692,566.7a95.53,95.53,0,0,0,24.44-15.9,99.85,99.85,0,0,0,19.27-23.45,103.75,103.75,0,0,1-13.09,28.72,107.85,107.85,0,0,1-21.91,24.35,111.73,111.73,0,0,1-29.25,17.28,114.72,114.72,0,0,1-34.32,7.93,118.76,118.76,0,0,1-36.33-2.93,124.43,124.43,0,0,1-34.82-14.2A128.84,128.84,0,0,1,536,563.82a132.67,132.67,0,0,1-21.86-33.53Z"/></svg>