<?xml version="1.0" encoding="UTF-8"?><svg id="a" xmlns="http://www.w3.org/2000/svg" xmlns:xlink="http://www.w3.org/1999/xlink" viewBox="0 0 1883 215"><defs><style>.ab{fill:url(#t);}.ac{fill:url(#r);}.ad{fill:url(#y);}.ae{fill:url(#l);}.af{fill:url(#c);}.ag{fill:url(#u);}.ah{fill:url(#v);}.ai{fill:url(#a`);}.aj{fill:url(#m);}.ak{fill:url(#f);}.al{fill:url(#p);}.am{fill:url(#g);}.an{fill:url(#b);}.ao{fill:url(#i);}.ap{fill:url(#h);}.aq{fill:url(#d);}.ar{fill:url(#e);}.as{fill:url(#x);}.at{fill:url(#aa);}.au{fill:url(#s);}.av{fill:url(#n);}.aw{fill:url(#w);}.ax{fill:url(#j);}.ay{fill:url(#o);}.b`{fill:url(#q);}.ba{fill:url(#k);}</style><linearGradient id="b" x1="118.57" y1="96.13" x2="1845.13" y2="96.13" gradientTransform="matrix(1, 0, 0, 1, 0, 0)" gradientUnits="userSpaceOnUse"><stop offset="0" stop-color="#ff6363"/><stop offset=".19" stop-color="#eded00"/><stop offset=".37" stop-color="#7dff7d"/><stop offset=".58" stop-color="aqua"/><stop offset=".78" stop-color="#6969ff"/><stop offset="1" stop-color="#ff3838"/></linearGradient><linearGradient id="c" y1="133.22" y2="133.22" xlink:href="#b"/><linearGradient id="d" y1="149" y2="149" xlink:href="#b"/><linearGradient id="e" y1="148.82" y2="148.82" xlink:href="#b"/><linearGradient id="f" y1="163.29" y2="163.29" xlink:href="#b"/><linearGradient id="g" y1="131.59" y2="131.59" xlink:href="#b"/><linearGradient id="h" y1="133.72" y2="133.72" xlink:href="#b"/><linearGradient id="i" y1="148.08" y2="148.08" xlink:href="#b"/><linearGradient id="j" y1="130.95" y2="130.95" xlink:href="#b"/><linearGradient id="k" y1="147.79" y2="147.79" xlink:href="#b"/><linearGradient id="l" y1="147.43" y2="147.43" xlink:href="#b"/><linearGradient id="m" y1="133.13" y2="133.13" xlink:href="#b"/><linearGradient id="n" y1="164.17" y2="164.17" xlink:href="#b"/><linearGradient id="o" y1="146.77" y2="146.77" xlink:href="#b"/><linearGradient id="p" y1="132.76" y2="132.76" xlink:href="#b"/><linearGradient id="q" y1="146.91" x2="1845.13" y2="146.91" xlink:href="#b"/><linearGradient id="r" y1="147.37" x2="1845.13" y2="147.37" xlink:href="#b"/><linearGradient id="s" y1="163.4" y2="163.4" xlink:href="#b"/><linearGradient id="t" y1="161.48" y2="161.48" xlink:href="#b"/><linearGradient id="u" y1="146.79" y2="146.79" xlink:href="#b"/><linearGradient id="v" y1="146.13" x2="1845.13" y2="146.13" xlink:href="#b"/><linearGradient id="w" y1="146.03" y2="146.03" xlink:href="#b"/><linearGradient id="x" y1="131.72" y2="131.72" xlink:href="#b"/><linearGradient id="y" y1="146.76" y2="146.76" xlink:href="#b"/><linearGradient id="a`" y1="145.36" y2="145.36" xlink:href="#b"/><linearGradient id="aa" y1="93.2" y2="93.2" xlink:href="#b"/></defs><rect x="30" y="67" width="1840" height="114"/><g><path class="an" d="M32.52,112.3c-3.54,0-6.03-1.45-7.48-4.37-.62-1.23-1.8-4.48-3.54-9.75-1.86-5.59-2.79-8.87-2.79-9.81,0-2.02,.88-3.68,2.65-5,1.64-1.28,3.56-1.92,5.74-1.92,3.83,0,6.36,1.68,7.6,5.05,.33,.91,1.43,4.22,3.29,9.94,1.86,5.72,2.79,8.68,2.79,8.89,0,1.98-.82,3.64-2.46,4.97-1.64,1.34-3.58,2.01-5.8,2.02Zm26.61-.04c-3.95,0-6.57-1.7-7.85-5.11-1.28-3.42-2.58-6.86-3.91-10.34-1.82-4.95-2.73-8.26-2.73-9.94,0-2,.86-3.66,2.58-4.98,1.6-1.27,3.52-1.91,5.74-1.91,4.24,0,6.86,1.85,7.85,5.57,.25,.9,1.49,4.31,3.72,10.25,1.86,4.87,2.79,8.04,2.79,9.51,0,1.96-.82,3.61-2.46,4.95-1.64,1.33-3.56,2-5.74,2Z"/><path class="af" d="M154.15,143.22c-2.78,12.27-8.4,22.1-16.87,29.48-8.59,7.42-18.67,11.14-30.24,11.16-10.95,.02-19.17-2.86-24.65-8.63-5.48-5.77-8.24-14.44-8.25-26.01-.02-10.54,2.56-21.35,7.73-32.43,5.17-11.08,11.82-20.06,19.96-26.95,5.71-4.83,11.84-7.24,18.39-7.25,3.99,0,9.43,1.43,16.31,4.29,8.16,3.4,12.24,7.04,12.24,10.91,0,2.22-.84,4.21-2.52,5.96-1.68,1.75-3.76,2.63-6.23,2.63-1.24,0-3.96-1.16-8.19-3.48-4.22-2.32-8.08-3.47-11.58-3.47-3.71,0-8.7,4.01-14.99,12-9.16,11.62-13.73,24.21-13.71,37.75,.01,6.88,1.03,11.54,3.05,14.01,2.14,2.59,6.28,3.88,12.42,3.87,6.3,0,11.83-1.81,16.6-5.4,5.06-3.79,8.79-9.32,11.21-16.57-9.55,.76-17.86,2.73-24.94,5.91-1.28,.58-2.55,.87-3.83,.87-2.55,0-4.67-.94-6.36-2.83-1.53-1.68-2.29-3.6-2.29-5.74,0-6.3,7.43-10.71,22.33-13.25,8.39-1.41,18.19-2.13,29.39-2.15,2.47,0,4.54,.79,6.21,2.4,1.67,1.6,2.51,3.58,2.51,5.92,0,3-1.23,5.33-3.69,6.98Z"/><path class="aq" d="M215.69,134.9c-.36,6.3-3.22,9.45-8.57,9.46-5.19,0-7.79-2.66-7.79-8.01l-.32-6.24c-9.26,1.5-15.88,6.26-19.86,14.29l.11,31.06c0,2.35-.8,4.29-2.4,5.84-1.6,1.55-3.64,2.32-6.11,2.33-2.55,0-4.53-.82-5.93-2.46-1.32-1.48-1.98-3.37-1.98-5.68l-.07-40.44c0-1.28,.04-3.18,.11-5.71,.08-2.53,.12-4.43,.12-5.71,0-2.3,.68-4.23,2.06-5.78,1.38-1.55,3.34-2.32,5.89-2.33,4.57,0,7.29,2.33,8.16,7.03,7.28-5.45,15.36-8.18,24.25-8.19,8.23-.01,12.36,5.46,12.38,16.4,0,2.1-.01,3.48-.05,4.14Z"/><path class="ar" d="M278.07,182.71c-1.89,0-4.9-1.82-9.02-5.48-3.79,1.82-7.12,3.19-10,4.12-2.88,.93-5.33,1.4-7.35,1.4-9.92,.02-17.36-2.63-22.33-7.93-4.97-5.3-7.46-13.24-7.48-23.82-.02-9.92,3.63-18.42,10.95-25.49,7.31-7.07,16.08-10.62,26.29-10.63,3.91,0,8.44,1.09,13.59,3.28,6.22,2.64,9.33,5.71,9.34,9.22,0,1.47-.47,2.75-1.41,3.85-.41,1.63-.72,3.68-.95,6.15-.22,2.47-.33,5.35-.32,8.65,.01,7.78,.58,13.39,1.69,16.81,.12,.37,1.07,2.48,2.85,6.35,1.61,3.5,2.42,5.5,2.42,5.99,0,2.16-.83,3.96-2.49,5.38-1.67,1.43-3.59,2.15-5.77,2.15Zm-15.38-41.65c0-1.32,.09-2.83,.27-4.54,.18-1.71,.46-3.61,.82-5.71-.83-.41-1.56-.71-2.19-.89-.64-.18-1.18-.28-1.64-.28-5.6,0-10.49,2.21-14.68,6.6-4.19,4.39-6.28,9.47-6.27,15.23,0,5.52,1,9.66,2.98,12.44,1.98,2.78,4.95,4.16,8.9,4.15,2.55,0,4.97-.43,7.25-1.28s4.43-2.1,6.45-3.75c-1.25-9.79-1.88-17.12-1.89-21.98Z"/><path class="ak" d="M323.57,182.89c-3.54,0-7.27-.4-11.18-1.22l-.02,25.19c0,2.39-.8,4.36-2.4,5.93s-3.64,2.35-6.11,2.36-4.51-.77-6.12-2.34c-1.61-1.56-2.41-3.54-2.42-5.92,0-1.94,.02-9.61,.08-23.03,.07-9.96,.05-18.09-.04-24.39-.14-8.89-.44-16.55-.9-22.97-.63-8.85-.95-12.9-.95-12.16,0-3.42,.75-6.34,2.27-8.77,1.76-2.76,4.15-4.14,7.16-4.15,2.3,0,4.24,.78,5.81,2.34,1.57,1.56,2.35,3.43,2.35,5.61l-.06,.62c2.75-1.57,5.52-2.73,8.3-3.5,2.78-.77,5.56-1.15,8.36-1.16,9.47-.02,16.39,3.99,20.77,12.01,3.26,6.05,4.9,13.88,4.92,23.52,.01,9.01-2.54,16.49-7.68,22.43-5.51,6.39-12.89,9.59-22.15,9.61Zm4.18-51.07c-2.59,0-5.23,.62-7.9,1.83-2.67,1.22-5.37,3.04-8.08,5.48,.51,8.48,.77,16.98,.78,25.5,3.67,1.19,7.33,1.78,10.99,1.77,4.24,0,7.49-1.51,9.75-4.52,2.05-2.72,3.08-6.39,3.07-11,0-5.56-.26-9.4-.76-11.54-1.2-5.02-3.82-7.53-7.85-7.52Z"/><path class="am" d="M380.9,122.66c3-2.97,6.22-5.19,9.65-6.65,3.43-1.47,7.11-2.2,11.02-2.21,7.04-.01,12.1,1.96,15.2,5.9,2.31,2.96,3.72,7.51,4.22,13.64,.21,5.06,.45,10.15,.7,15.25,.67,6.63,1.09,10.66,1.25,12.1,.58,4.57,1.29,8.56,2.12,11.98,.21,.86,.31,1.62,.31,2.28,0,2.31-.87,4.21-2.62,5.72-1.75,1.5-3.79,2.26-6.14,2.26-4.16,0-6.86-2.05-8.1-6.16-.99-3.33-1.91-8.02-2.74-14.07-.75-5.8-1.13-10.58-1.13-14.32,0-1.03,.05-2.58,.15-4.66,.1-2.08,.15-3.63,.15-4.66,0-3.05-.05-4.82-.13-5.31-.37-2.26-1.45-3.39-3.21-3.39-4.57,0-8.7,2.11-12.4,6.32-1.89,2.1-4.48,6.1-7.76,11.99,.02,14.9-.68,23.88-2.12,26.92-1.6,3.38-4.15,5.07-7.65,5.08-2.31,0-4.35-.76-6.15-2.3-1.79-1.54-2.69-3.44-2.69-5.71,0-.78,.22-1.87,.67-3.27,.29-.91,.52-6.46,.71-16.67-.22-8.27-.2-22.04,.06-41.31l.12-2.04c.24-4.86,.36-8.11,.35-9.76,0-1.28-.2-3.16-.6-5.65-.4-2.49-.59-4.37-.6-5.65,0-2.35,.84-4.27,2.52-5.78,1.69-1.5,3.72-2.26,6.11-2.26,4.08,0,6.82,2.17,8.22,6.53,.79,2.47,1.18,6.25,1.19,11.36,0,4.12-.11,8.3-.35,12.54-.24,4.03-.36,8.03-.35,11.98Z"/><path class="ap" d="M454.97,150.07c0,2.35,.08,6.11,.23,11.3,.15,5.19,.23,8.95,.23,11.3,0,2.39-.8,4.35-2.4,5.9-1.6,1.55-3.64,2.32-6.11,2.33s-4.51-.76-6.12-2.31c-1.61-1.54-2.41-3.5-2.42-5.89,0-2.35-.08-6.11-.23-11.3-.15-5.19-.23-8.95-.24-11.3,0-3.66,.19-8.25,.6-13.77,.4-5.52,.6-10.11,.59-13.77,0-2.39,.8-4.35,2.4-5.9,1.6-1.55,3.64-2.32,6.11-2.33s4.51,.76,6.12,2.3,2.41,3.51,2.42,5.89c0,3.66-.19,8.25-.59,13.77-.4,5.52-.6,10.11-.59,13.77Zm-5.32-45.25c-2.63,0-4.92-.88-6.86-2.64-1.94-1.77-2.91-3.93-2.91-6.48,0-2.55,.96-4.71,2.89-6.49,1.93-1.77,4.21-2.66,6.85-2.67,2.63,0,4.91,.88,6.83,2.64,1.92,1.77,2.88,3.93,2.88,6.48,0,2.55-.95,4.72-2.86,6.49-1.91,1.77-4.19,2.66-6.82,2.67Z"/><path class="ao" d="M499.54,182.85c-9.06,.01-16.65-2.55-22.8-7.68-6.47-5.42-9.71-12.58-9.73-21.47-.01-8.19,2.88-16.66,8.67-25.39,6.57-9.97,14.22-14.97,22.94-14.98,4.28,0,9.28,1.14,15.01,3.43,6.96,2.83,10.45,6.09,10.45,9.8,0,2.02-.69,3.81-2.09,5.38-1.48,1.69-3.39,2.54-5.74,2.54-1.77,0-3.9-.95-6.4-2.86-2.49-1.91-6.23-2.86-11.21-2.85-3.17,0-6.6,3.12-10.3,9.34-3.53,6.02-5.29,11.21-5.28,15.57,0,4.32,1.58,7.72,4.71,10.18,2.97,2.34,6.88,3.51,11.74,3.5,2.76,0,6.13-1.06,10.12-3.17,3.99-2.11,6.52-3.16,7.59-3.16,2.22,0,4.13,.8,5.71,2.4,1.59,1.6,2.38,3.43,2.39,5.49,0,3.21-3.49,6.43-10.48,9.65-6.25,2.85-11.35,4.28-15.31,4.29Z"/><path class="ax" d="M636.01,116.68c.51-14.04,1.13-23.73,1.87-29.08,.69-4.86,3.36-7.29,8.01-7.3,2.43,0,4.39,.78,5.87,2.36,1.48,1.58,2.23,3.51,2.23,5.79,0,6.03-.44,15.01-1.35,26.94-.91,11.93-1.35,20.91-1.34,26.94,.02,14.72,.51,24.57,1.47,29.55,.12,.67,.19,1.27,.19,1.81,0,2.29-.82,4.17-2.46,5.65-1.65,1.48-3.56,2.22-5.74,2.22-3.05,0-5.31-1.35-6.8-4.06-2.8,1.69-5.7,2.8-8.7,3.32-3,.52-6.11,.78-9.32,.79-9.22,.01-16.88-2.92-22.98-8.79-6.23-6-9.35-13.65-9.36-22.95-.02-11.07,3.09-20.02,9.34-26.84,6.25-6.82,14.41-10.24,24.5-10.26,3.09,0,5.84,.32,8.28,.97,2.43,.66,4.53,1.64,6.3,2.95Zm-1.2,19.45c-1.36-2.59-3.14-4.52-5.32-5.79-2.18-1.27-4.78-1.91-7.78-1.9-6.09,0-10.66,1.78-13.7,5.3-3.04,3.52-4.55,8.81-4.54,15.84,0,4.45,1.66,8.25,4.96,11.42,3.3,3.17,7.13,4.74,11.49,4.74,3.17,0,5.58-.38,7.22-1.12,1.11-.5,3-1.82,5.67-3.96,.7-.58,1.38-1.22,2.04-1.92-.09-1.98-.1-9.51-.04-22.6Z"/><path class="ba" d="M696.32,181.47c-9.84,.02-17.89-2.32-24.15-7-6.92-5.17-10.39-12.48-10.41-21.9-.02-10.41,2.71-19.23,8.17-26.44,6.08-8,14.28-12,24.62-12.02,7.16-.01,13.11,1.13,17.85,3.43,6.22,3.04,9.34,7.76,9.35,14.19,0,4.53-2.52,8.55-7.58,12.05-2.3,1.61-6.93,3.96-13.88,7.06l-20.79,9.23c1.98,2.14,4.37,3.74,7.17,4.8,2.8,1.07,6.01,1.6,9.63,1.59,5.52,0,10.19-1.15,14.01-3.42,3.41-2.02,6.15-3.04,8.21-3.04,4.28,0,6.42,2.07,6.43,6.23,0,4.69-3.42,8.53-10.29,11.5-5.76,2.48-11.87,3.72-18.33,3.73Zm-1.75-52.42c-3.83,0-7.1,1.29-9.81,3.84-2.71,2.56-4.89,6.39-6.53,11.5,4.65-2.02,9.27-4.03,13.88-6.01,5.55-2.52,9.97-4.85,13.26-7-2.76-1.56-6.36-2.33-10.81-2.33Z"/><path class="ae" d="M779.29,133.3c-4.08,0-6.53-1.7-7.36-5.11-1.65-.29-3.33-.43-5.06-.42-9.92,.02-14.88,1.38-14.87,4.1,0,1.61,2.99,3.76,8.96,6.47,8.16,3.73,13.68,6.65,16.56,8.74,5.97,4.31,8.97,9.19,8.98,14.62,.01,7.08-3.27,12.46-9.85,16.13-5.31,2.93-11.83,4.4-19.57,4.42-5.47,0-10.48-.83-15.01-2.51-6.18-2.29-9.27-5.68-9.28-10.17,0-4.12,2.44-6.18,7.34-6.19,1.89,0,4.63,.59,8.21,1.78,3.58,1.19,6.34,1.78,8.28,1.78,8.36-.01,12.55-1.71,12.59-5.08,0-2.1-2.91-4.42-8.72-6.96-8.49-3.73-13.92-6.42-16.31-8.06-5.81-4.07-8.72-9.02-8.73-14.87-.01-8.27,4.36-13.86,13.12-16.75,5.14-1.7,12.96-2.55,23.46-2.57,4.12,0,7.16,.52,9.14,1.59,2.72,1.44,4.08,4.09,4.09,7.96,.01,7.41-1.98,11.12-5.97,11.12Z"/><path class="aj" d="M816.73,149.48c0,2.35,.08,6.11,.23,11.3,.15,5.19,.23,8.95,.23,11.3,0,2.39-.8,4.35-2.4,5.9-1.6,1.55-3.64,2.32-6.11,2.33s-4.51-.76-6.12-2.31c-1.61-1.54-2.41-3.5-2.42-5.89,0-2.35-.08-6.11-.23-11.3-.15-5.19-.23-8.95-.24-11.3,0-3.66,.19-8.25,.6-13.77,.4-5.52,.6-10.11,.59-13.77,0-2.39,.8-4.35,2.4-5.9,1.6-1.55,3.64-2.32,6.11-2.33s4.51,.76,6.12,2.31c1.61,1.54,2.41,3.51,2.42,5.89,0,3.66-.19,8.25-.59,13.77-.4,5.52-.6,10.11-.59,13.77Zm-5.32-45.25c-2.63,0-4.92-.88-6.86-2.64-1.94-1.77-2.91-3.93-2.91-6.48,0-2.55,.96-4.71,2.89-6.49,1.93-1.77,4.21-2.66,6.85-2.67,2.63,0,4.91,.88,6.83,2.64,1.92,1.77,2.88,3.93,2.88,6.48,0,2.55-.95,4.72-2.86,6.49-1.91,1.77-4.19,2.66-6.82,2.67Z"/><path class="av" d="M890.07,141.52c-1.71,9.67-2.73,19.88-3.04,30.63-.39,13.3-2.6,22.95-6.62,28.97-5.38,8.04-14.92,12.06-28.63,12.09-16.01,.03-24.02-3.13-24.03-9.47,0-2.26,.71-4.1,2.15-5.5,1.44-1.4,3.33-2.1,5.68-2.11,1.85,0,4.51,.34,7.97,1.04,3.46,.69,6.53,1.04,9.2,1.03,6.13,0,10.66-1.89,13.57-5.64,2.79-3.67,4.43-9.5,4.91-17.48-2.1,2.14-4.46,3.75-7.09,4.83-2.63,1.07-5.51,1.61-8.64,1.62-8.19,.01-14.85-2.64-19.99-7.96-5.13-5.32-7.71-12.14-7.72-20.46-.02-11.2,3.38-20.26,10.21-27.18,7.07-7.17,16.63-10.77,28.69-10.79,3.87,0,7.2,.46,10,1.4,2.8,.94,5.07,2.38,6.8,4.31,5.23,.61,7.85,3.69,7.86,9.25,0,2.76-.42,6.57-1.28,11.43Zm-23.98-12.31c-6.96,.01-12.37,2.31-16.23,6.88-3.45,4.16-5.17,9.56-5.16,16.19,0,4.9,.94,8.58,2.8,11.05,1.86,2.47,4.64,3.7,8.34,3.69,3.38,0,6.77-1.96,10.18-5.88,3.2-3.71,5.03-7.38,5.48-11,.78-3.95,1.67-10.11,2.69-18.47-1.4-.82-2.78-1.43-4.14-1.84-1.36-.41-2.68-.61-3.95-.61Z"/><path class="ay" d="M948.67,182.6c-5.06,0-7.89-2.48-8.47-7.46-.58-4.24-1.17-8.5-1.75-12.78-.63-4.53-.94-8.79-.95-12.78,0-1.07,.07-2.9,.21-5.5,.14-2.59,.21-4.42,.21-5.5,0-.29,.04-1.02,.12-2.19,.08-1.17,.12-2.13,.12-2.87,0-3.42-.83-5.12-2.48-5.12-3.53,0-6.98,2.28-10.37,6.82-3.38,4.54-6.03,10.29-7.93,17.25-.07,1.39-.24,3.25-.51,5.57-.23,1.9-.34,3.75-.34,5.57,0,1.18-.13,2.96-.39,5.35-.26,2.38-.39,4.17-.39,5.35,0,2.4-.81,4.4-2.43,5.98-1.62,1.58-3.67,2.38-6.14,2.38s-4.51-.78-6.12-2.35c-1.61-1.57-2.41-3.55-2.42-5.94,0-1.17-.13-2.94-.38-5.31-.25-2.37-.38-4.14-.38-5.31,0-4.02,.27-9.62,.84-16.79s.84-12.77,.84-16.79c0-1.26-.08-3.13-.23-5.63-.15-2.49-.22-4.35-.22-5.56,0-2.35,.83-4.29,2.49-5.82,1.67-1.53,3.71-2.3,6.14-2.3,5.39,0,8.28,3.22,8.66,9.68l.06,.68c6-6.06,12.33-9.1,19-9.11,7.78-.01,13.16,3.23,16.13,9.73,1.98,4.36,2.98,10.88,3,19.57v4.38c-.03,1.89-.05,3.23-.05,4.01,0,3.21,.45,7.35,1.35,12.41,.89,5.06,1.34,9.18,1.35,12.35,0,2.31-.82,4.22-2.46,5.75-1.64,1.53-3.68,2.29-6.11,2.29Z"/><path class="al" d="M1040.3,149.11c0,2.35,.08,6.11,.23,11.3,.15,5.19,.23,8.95,.23,11.3,0,2.39-.8,4.35-2.4,5.9-1.6,1.55-3.64,2.32-6.11,2.33s-4.51-.76-6.12-2.31c-1.61-1.54-2.41-3.5-2.42-5.89,0-2.35-.08-6.11-.23-11.3-.15-5.19-.23-8.95-.24-11.3,0-3.66,.19-8.25,.6-13.77,.4-5.52,.6-10.11,.59-13.77,0-2.39,.8-4.35,2.4-5.9,1.6-1.55,3.64-2.32,6.11-2.33s4.51,.76,6.12,2.31c1.61,1.54,2.41,3.51,2.42,5.89,0,3.66-.19,8.25-.59,13.77-.4,5.52-.6,10.11-.59,13.77Zm-5.32-45.25c-2.63,0-4.92-.88-6.86-2.64-1.94-1.77-2.91-3.93-2.91-6.48,0-2.55,.96-4.71,2.89-6.49,1.93-1.77,4.21-2.66,6.85-2.67,2.63,0,4.91,.88,6.83,2.64,1.92,1.77,2.88,3.93,2.88,6.48,0,2.55-.95,4.72-2.86,6.49-1.91,1.77-4.19,2.66-6.82,2.67Z"/><path class="b`" d="M1099.86,132.78c-3.32,0-5.56-1.12-6.73-3.39-.58-1.12-1.65-1.91-2.9-2.02-.92-.08-1.85-.13-2.79-.12-9.92,.02-14.88,1.38-14.87,4.1,0,1.61,2.99,3.76,8.96,6.47,8.16,3.73,13.68,6.65,16.56,8.74,5.97,4.31,8.97,9.19,8.98,14.62,.01,7.08-3.27,12.46-9.85,16.13-5.31,2.93-11.83,4.4-19.57,4.42-5.47,0-10.48-.83-15.01-2.51-6.18-2.29-9.27-5.68-9.28-10.17,0-4.12,2.44-6.18,7.34-6.19,1.89,0,4.63,.59,8.21,1.78,3.58,1.19,6.34,1.78,8.28,1.78,8.36-.01,12.55-1.71,12.59-5.08,0-2.1-2.91-4.42-8.72-6.96-8.49-3.73-13.92-6.42-16.31-8.06-5.81-4.07-8.72-9.02-8.73-14.87-.01-8.27,4.36-13.86,13.12-16.75,5.14-1.7,12.96-2.55,23.46-2.57,4.12,0,7.16,.52,9.14,1.59,2.72,1.44,4.08,4.09,4.09,7.96,.01,7.41-1.98,11.12-5.97,11.12Z"/><path class="ac" d="M1188.75,123.18c6.2-7.21,12.08-10.82,17.64-10.83,6.34-.01,10.99,2.39,13.97,7.2,2.51-2.23,5.28-3.9,8.33-5.01,3.04-1.12,6.34-1.68,9.88-1.68,8.07-.01,13.55,3.99,16.44,12.01,.58,1.65,1.47,7.22,2.68,16.73,1.16,6.67,2.66,17.78,4.5,33.33,.17,2.35-.63,4.28-2.4,5.81-1.77,1.53-3.85,2.29-6.23,2.29-4.73,0-7.52-2.33-8.35-7.02-.75-4.24-1.52-10.23-2.31-17.96-.84-8.48-1.53-14.49-2.07-18.03-1.12-7.37-2.55-11.05-4.28-11.04-.95,0-3.11,.95-6.48,2.85-3.37,1.9-5.84,3.53-7.4,4.89,0,4.69,.57,11.44,1.7,20.25,1.17,9.01,1.75,15.76,1.76,20.25,0,2.35-.8,4.3-2.4,5.87-1.6,1.57-3.64,2.35-6.11,2.36s-4.51-.77-6.12-2.34c-1.61-1.56-2.41-3.51-2.42-5.86,0-4.69-.52-11.6-1.55-20.71s-1.54-16.02-1.55-20.71c0-2.63-.23-4.73-.69-6.3-4.77,2.77-9.56,7.36-14.36,13.79-.21,.29-.55,.72-1.05,1.3-.15,8.31-.22,14.84-.21,19.57,0,1.15-.04,2.71-.12,4.66-.08,1.96-.12,3.41-.12,4.35,0,2.22-.9,3.97-2.71,5.25-1.65,1.2-3.68,1.8-6.11,1.8-3.5,0-5.87-1.51-7.11-4.56-.87-2.06-1.3-5.33-1.31-9.82l-.04-22.97c0-2.06-.09-5.07-.26-9.04-.17-3.97-.26-6.99-.26-9.05,0-3.66,.65-6.98,1.96-9.94,1.6-3.71,3.86-5.56,6.78-5.57,2.3,0,4.36,.89,6.18,2.68,1.81,1.79,2.72,3.75,2.73,5.89,0-.86-.18,.91-.55,5.31Z"/><path class="au" d="M1332.37,125.42c-4.47,9.35-11.55,24.04-21.23,44.06-5.25,10.75-9.25,19.67-12,26.75-.86,2.55-2.21,6.34-4.06,11.37-1.48,3.87-4.11,5.81-7.89,5.82-2.35,0-4.41-.76-6.18-2.28-1.77-1.52-2.66-3.43-2.67-5.74,0-3.83,4.34-15.17,13.03-34.04-4.54-8.92-11.75-22.06-21.61-39.42-.99-1.56-2-3.15-3.03-4.75-1.11-1.89-1.67-3.62-1.68-5.18,0-2.22,.88-4.18,2.65-5.87,1.77-1.69,3.8-2.54,6.11-2.54,2.72,0,4.84,1,6.37,3.01,5.86,7.77,12.69,19.47,20.49,35.1,4.39-9.76,7.05-15.65,8-17.67,2.91-6.14,5.76-11.53,8.56-16.19,1.76-2.97,4.19-4.45,7.28-4.46,2.3,0,4.36,.78,6.18,2.34,1.81,1.56,2.72,3.47,2.73,5.74,0,1.19-.35,2.51-1.04,3.95Z"/><path class="ab" d="M1424.34,181.08c-3.54,0-7.27-.4-11.18-1.22l-.02,25.19c0,2.39-.8,4.36-2.4,5.93-1.6,1.57-3.64,2.35-6.11,2.36-2.47,0-4.51-.78-6.12-2.34-1.61-1.56-2.41-3.54-2.42-5.92,0-1.94,.02-9.61,.08-23.03,.07-9.96,.05-18.09-.04-24.39-.14-8.89-.44-16.55-.9-22.97-.63-8.85-.95-12.9-.95-12.16,0-3.42,.75-6.34,2.27-8.77,1.76-2.76,4.15-4.14,7.16-4.15,2.3,0,4.24,.78,5.81,2.34,1.57,1.56,2.35,3.43,2.35,5.61l-.06,.62c2.75-1.57,5.52-2.73,8.3-3.5,2.78-.76,5.56-1.15,8.36-1.16,9.47-.02,16.39,3.99,20.77,12.01,3.26,6.05,4.9,13.88,4.92,23.52,.01,9.01-2.54,16.49-7.68,22.43-5.51,6.39-12.89,9.59-22.15,9.61Zm4.18-51.07c-2.59,0-5.23,.62-7.9,1.83-2.67,1.22-5.37,3.04-8.08,5.48,.51,8.48,.77,16.98,.78,25.5,3.67,1.19,7.33,1.78,10.99,1.77,4.24,0,7.49-1.51,9.75-4.52,2.05-2.72,3.08-6.38,3.07-11,0-5.56-.26-9.41-.76-11.54-1.2-5.02-3.82-7.53-7.85-7.52Z"/><path class="ag" d="M1516.71,180.68c-1.89,0-4.9-1.82-9.02-5.48-3.79,1.82-7.12,3.19-10,4.12-2.88,.93-5.33,1.4-7.35,1.4-9.92,.02-17.36-2.63-22.33-7.93-4.97-5.3-7.46-13.24-7.48-23.82-.02-9.92,3.63-18.42,10.95-25.49,7.31-7.07,16.08-10.62,26.29-10.63,3.91,0,8.44,1.09,13.59,3.28,6.22,2.64,9.33,5.71,9.34,9.22,0,1.47-.47,2.75-1.41,3.85-.41,1.63-.72,3.68-.95,6.15-.22,2.47-.33,5.35-.32,8.65,.01,7.78,.58,13.39,1.69,16.81,.12,.37,1.07,2.48,2.85,6.35,1.61,3.5,2.42,5.5,2.42,5.99,0,2.16-.83,3.95-2.49,5.38-1.67,1.43-3.59,2.15-5.77,2.15Zm-15.38-41.65c0-1.32,.09-2.83,.27-4.54,.18-1.71,.46-3.61,.82-5.71-.83-.41-1.56-.71-2.19-.89-.64-.18-1.18-.28-1.64-.28-5.6,0-10.49,2.21-14.68,6.6-4.19,4.39-6.28,9.47-6.27,15.23,0,5.52,1,9.66,2.98,12.44,1.98,2.78,4.95,4.16,8.9,4.15,2.55,0,4.97-.43,7.25-1.28s4.43-2.1,6.45-3.75c-1.25-9.79-1.88-17.12-1.89-21.98Z"/><path class="ah" d="M1577.08,131.99c-4.08,0-6.53-1.7-7.36-5.11-1.65-.28-3.33-.43-5.06-.42-9.92,.02-14.88,1.38-14.87,4.1,0,1.61,2.99,3.76,8.96,6.47,8.16,3.73,13.68,6.65,16.56,8.74,5.97,4.31,8.97,9.19,8.98,14.62,.01,7.08-3.27,12.46-9.85,16.13-5.31,2.93-11.83,4.4-19.57,4.42-5.47,0-10.48-.83-15.01-2.51-6.18-2.29-9.27-5.69-9.28-10.17,0-4.12,2.44-6.18,7.34-6.19,1.89,0,4.63,.59,8.21,1.78,3.58,1.19,6.34,1.78,8.28,1.78,8.36-.01,12.55-1.71,12.59-5.08,0-2.1-2.91-4.42-8.72-6.96-8.49-3.73-13.92-6.42-16.31-8.06-5.81-4.07-8.72-9.02-8.73-14.87-.01-8.27,4.36-13.86,13.12-16.75,5.14-1.7,12.96-2.55,23.46-2.57,4.12,0,7.16,.52,9.14,1.59,2.72,1.44,4.08,4.09,4.09,7.96,.01,7.41-1.98,11.12-5.97,11.12Z"/><path class="aw" d="M1638.63,131.89c-4.08,0-6.53-1.7-7.36-5.11-1.65-.28-3.33-.43-5.06-.42-9.92,.02-14.88,1.38-14.87,4.1,0,1.61,2.99,3.76,8.96,6.47,8.16,3.73,13.68,6.65,16.56,8.74,5.97,4.31,8.97,9.19,8.98,14.62,.01,7.08-3.27,12.46-9.85,16.13-5.31,2.93-11.83,4.4-19.57,4.42-5.47,0-10.48-.83-15.01-2.51-6.18-2.29-9.27-5.68-9.28-10.17,0-4.12,2.44-6.18,7.34-6.19,1.89,0,4.63,.59,8.21,1.78,3.58,1.19,6.34,1.78,8.28,1.78,8.36-.01,12.55-1.71,12.59-5.08,0-2.1-2.91-4.42-8.72-6.96-8.49-3.73-13.92-6.42-16.31-8.06-5.81-4.07-8.72-9.02-8.73-14.87-.01-8.27,4.36-13.86,13.12-16.75,5.14-1.7,12.96-2.55,23.46-2.57,4.12,0,7.16,.52,9.14,1.59,2.72,1.44,4.08,4.09,4.09,7.96,.01,7.41-1.98,11.12-5.97,11.12Z"/><path class="as" d="M1676.08,148.07c0,2.35,.08,6.11,.23,11.3,.15,5.19,.23,8.95,.23,11.3,0,2.39-.8,4.35-2.4,5.9s-3.64,2.32-6.11,2.33c-2.47,0-4.51-.77-6.12-2.31-1.61-1.54-2.41-3.5-2.42-5.89,0-2.35-.08-6.11-.23-11.3-.15-5.18-.23-8.95-.24-11.3,0-3.66,.19-8.25,.6-13.77,.4-5.52,.6-10.11,.59-13.77,0-2.39,.8-4.36,2.4-5.9,1.6-1.55,3.64-2.32,6.11-2.33s4.51,.76,6.12,2.31c1.61,1.54,2.41,3.51,2.42,5.89,0,3.66-.19,8.25-.59,13.77-.4,5.52-.6,10.11-.59,13.77Zm-5.32-45.25c-2.63,0-4.92-.88-6.86-2.64-1.94-1.77-2.91-3.93-2.91-6.48,0-2.55,.96-4.71,2.89-6.49,1.93-1.77,4.21-2.66,6.85-2.67,2.63,0,4.91,.88,6.83,2.64,1.92,1.77,2.88,3.93,2.88,6.48,0,2.55-.95,4.71-2.86,6.49-1.91,1.77-4.19,2.66-6.82,2.67Z"/><path class="ad" d="M1717.68,180.6c-7.62,.01-14.17-2.59-19.65-7.81-6.02-5.71-9.18-13.34-9.48-22.89-.3-9.1,2.17-17.21,7.43-24.34,6.24-8.41,14.94-12.62,26.1-12.64,8.23-.01,14.78,3.27,19.65,9.85,4.37,5.92,6.57,13.26,6.58,22.03,.02,9.55-2.52,17.7-7.62,24.46-5.71,7.54-13.38,11.32-23.01,11.34Zm3.62-51.38c-5.06-.03-9.05,2.28-11.97,6.93-2.46,3.92-3.69,8.49-3.68,13.71,0,4.94,1.41,8.73,4.22,11.35,2.23,2.1,4.82,3.14,7.78,3.14,3.58,0,6.69-1.22,9.32-3.66,3-2.85,4.6-6.7,4.8-11.55,.51-13.25-2.98-19.9-10.47-19.93Z"/><path class="ai" d="M1807.4,181.2c-5.06,0-7.89-2.48-8.47-7.46-.58-4.24-1.17-8.5-1.75-12.78-.63-4.53-.94-8.79-.95-12.78,0-1.07,.07-2.9,.21-5.5,.14-2.59,.21-4.42,.21-5.5,0-.29,.04-1.02,.12-2.19,.08-1.17,.12-2.13,.12-2.87,0-3.42-.83-5.12-2.48-5.12-3.53,0-6.98,2.28-10.37,6.82s-6.03,10.29-7.93,17.25c-.07,1.39-.24,3.25-.51,5.57-.23,1.9-.34,3.75-.34,5.57,0,1.18-.13,2.96-.39,5.35-.26,2.38-.39,4.17-.39,5.35,0,2.4-.81,4.4-2.43,5.98-1.62,1.58-3.67,2.38-6.14,2.38-2.47,0-4.51-.78-6.12-2.35-1.61-1.57-2.41-3.55-2.42-5.94,0-1.17-.13-2.94-.38-5.31s-.38-4.14-.38-5.31c0-4.02,.27-9.62,.84-16.79,.56-7.17,.84-12.77,.84-16.79,0-1.26-.08-3.13-.23-5.63-.15-2.49-.22-4.35-.22-5.56,0-2.35,.83-4.29,2.49-5.82,1.67-1.53,3.71-2.3,6.14-2.31,5.39,0,8.28,3.22,8.66,9.68l.06,.68c6-6.06,12.33-9.1,19-9.11,7.78-.01,13.16,3.23,16.13,9.73,1.98,4.36,2.98,10.88,3,19.57v4.38c-.03,1.89-.05,3.23-.05,4.01,0,3.21,.45,7.35,1.35,12.41,.89,5.06,1.34,9.18,1.35,12.35,0,2.31-.82,4.22-2.46,5.75-1.64,1.52-3.68,2.29-6.11,2.29Z"/><path class="at" d="M1824.13,107.37c-1.65-1.33-2.47-2.97-2.48-4.94,0-1.47,.92-4.65,2.76-9.52,2.21-5.94,3.44-9.36,3.69-10.26,.98-3.73,3.59-5.59,7.83-5.6,2.22,0,4.17,.64,5.84,1.92,1.67,1.29,2.5,2.93,2.51,4.94,0,1.68-.9,5-2.7,9.95-1.31,3.48-2.6,6.93-3.87,10.35-1.27,3.42-3.88,5.13-7.83,5.14-2.18,0-4.1-.66-5.75-1.99Zm26.55-.06c-1.65-1.33-2.48-2.99-2.48-4.97,0-.21,.92-3.17,2.76-8.89,1.84-5.73,2.93-9.04,3.26-9.95,1.23-3.38,3.76-5.07,7.59-5.07,2.18,0,4.13,.64,5.84,1.94,1.71,1.29,2.57,2.95,2.57,4.97,0,.95-.92,4.22-2.76,9.82-1.72,5.27-2.89,8.53-3.5,9.76-1.44,2.92-3.92,4.39-7.46,4.4-2.22,0-4.16-.66-5.81-2Z"/></g></svg>